<?xml version="1.0" standalone="no"?>
<!DOCTYPE svg PUBLIC "-//W3C//DTD SVG 20010904//EN"
 "http://www.w3.org/TR/2001/REC-SVG-20010904/DTD/svg10.dtd">
<svg version="1.0" xmlns="http://www.w3.org/2000/svg"
 width="50.000000pt" height="5s0.000000pt" viewBox="0 0 500.000000 500.000000"
 preserveAspectRatio="xMidYMid meet">

<g transform="translate(0.000000,500.000000) scale(0.100000,-0.100000)"
fill="#000000" stroke="none">
<path d="M3095 3760 c3 -5 8 -10 11 -10 2 0 4 5 4 10 0 6 -5 10 -11 10 -5 0
-7 -4 -4 -10z"/>
<path d="M2945 3673 c9 -20 17 -38 18 -39 14 -11 66 -32 70 -28 8 8 87 -35 87
-47 0 -6 4 -8 9 -5 10 7 107 -55 181 -117 117 -97 132 -111 121 -115 -6 -2
-11 -8 -11 -14 0 -7 5 -6 14 1 11 10 23 0 62 -50 26 -35 70 -99 97 -143 27
-45 46 -72 41 -61 -4 11 -8 30 -8 43 -1 12 -6 22 -12 22 -5 0 -38 42 -71 93
-68 104 -176 218 -280 297 -37 28 -68 55 -68 60 0 5 -4 12 -9 17 -5 5 -6 2 -1
-6 5 -9 4 -12 -4 -10 -7 3 -12 8 -12 12 1 11 -34 43 -55 50 -10 3 -56 21 -101
41 l-83 35 15 -36z"/>
<path d="M3320 3620 c0 -5 5 -10 10 -10 6 0 10 5 10 10 0 6 -4 10 -10 10 -5 0
-10 -4 -10 -10z"/>
<path d="M3222 3571 c-10 -6 -6 -13 13 -25 26 -17 26 -17 14 6 -6 13 -12 24
-13 25 -1 1 -7 -2 -14 -6z"/>
<path d="M3237 3453 c-13 -12 -7 -33 8 -33 8 0 15 9 15 20 0 20 -11 26 -23 13z"/>
<path d="M3380 3436 c0 -2 8 -10 18 -17 15 -13 16 -12 3 4 -13 16 -21 21 -21
13z"/>
<path d="M3345 3350 c-8 -13 -1 -24 14 -19 6 3 7 10 2 18 -6 10 -10 10 -16 1z"/>
<path d="M3660 3240 c0 -5 5 -10 10 -10 6 0 10 5 10 10 0 6 -4 10 -10 10 -5 0
-10 -4 -10 -10z"/>
<path d="M3395 3210 c-3 -5 1 -10 10 -10 9 0 13 5 10 10 -3 6 -8 10 -10 10 -2
0 -7 -4 -10 -10z"/>
<path d="M3505 3160 c4 -6 11 -8 16 -5 14 9 11 15 -7 15 -8 0 -12 -5 -9 -10z"/>
<path d="M3830 3140 c0 -5 5 -10 11 -10 5 0 7 5 4 10 -3 6 -8 10 -11 10 -2 0
-4 -4 -4 -10z"/>
<path d="M3663 3012 c-8 -5 -9 -13 -3 -22 11 -17 23 -8 18 14 -2 9 -8 12 -15
8z"/>
<path d="M3770 3000 c0 -5 5 -10 10 -10 6 0 10 5 10 10 0 6 -4 10 -10 10 -5 0
-10 -4 -10 -10z"/>
<path d="M1995 2915 c-111 -56 -216 -312 -219 -535 -1 -115 10 -162 50 -210
82 -96 240 2 363 225 41 74 38 70 54 56 15 -12 33 3 55 44 10 19 11 18 23 -8
16 -35 49 -44 83 -22 l26 17 0 -79 c0 -96 10 -173 21 -173 5 0 9 24 9 54 0 49
3 57 30 76 17 12 41 43 54 68 14 26 33 52 45 59 18 11 20 10 23 -14 5 -39 23
-39 51 2 24 34 26 35 32 15 11 -34 49 -46 80 -26 25 16 25 16 25 -15 0 -39 22
-34 31 8 9 44 17 53 49 53 20 0 40 -11 65 -35 19 -20 35 -38 35 -42 0 -3 -16
-23 -35 -44 -54 -60 -60 -119 -12 -119 44 0 87 67 87 138 1 37 5 43 70 85 l26
17 -1 -53 c0 -46 2 -52 22 -55 32 -5 57 47 49 102 -3 22 -6 49 -7 59 -1 24
-23 21 -38 -5 -7 -13 -40 -40 -72 -61 l-60 -37 -35 26 c-19 15 -34 29 -34 32
0 3 10 16 22 29 12 13 19 26 15 29 -8 8 -57 -23 -57 -36 0 -6 -15 -10 -33 -10
-18 0 -38 -5 -45 -12 -9 -9 -12 -4 -12 25 0 20 -4 37 -10 37 -5 0 -10 -14 -10
-30 0 -33 -38 -80 -64 -80 -19 0 -36 31 -36 64 0 38 -15 32 -44 -16 -21 -35
-26 -39 -26 -21 0 13 13 37 29 55 25 28 31 30 45 19 9 -7 16 -9 16 -3 0 18
-29 34 -49 27 -11 -3 -28 -20 -39 -36 -10 -17 -32 -39 -47 -49 -28 -18 -28
-18 -45 3 -23 28 -43 13 -66 -51 -25 -67 -38 -76 -31 -22 17 130 19 183 8 176
-6 -4 -14 -26 -18 -49 -7 -44 -49 -97 -77 -97 -19 0 -36 30 -36 64 0 38 -17
32 -41 -16 -12 -24 -24 -38 -26 -31 -5 14 20 65 41 82 13 11 19 11 31 1 12
-10 15 -10 15 3 0 9 -10 19 -22 23 -18 5 -30 -2 -61 -37 -21 -24 -52 -71 -69
-104 -144 -281 -323 -381 -378 -211 -20 62 -7 242 25 351 68 234 190 370 244
273 13 -23 13 -35 3 -88 -8 -34 -24 -87 -38 -117 -26 -60 -29 -73 -15 -73 19
0 74 154 78 220 4 56 2 69 -17 93 -25 31 -59 35 -105 12z m1175 -418 c0 -34
-23 -77 -35 -66 -8 9 15 99 26 99 5 0 9 -15 9 -33z m-630 -5 c0 -10 -11 -29
-25 -42 -29 -27 -33 -12 -8 31 20 33 33 37 33 11z m-40 -97 c-13 -14 -26 -23
-28 -20 -3 3 5 16 18 30 13 14 26 23 28 20 3 -3 -5 -16 -18 -30z m473 -63
c-20 -41 -53 -56 -53 -24 0 10 15 39 32 63 30 40 33 42 36 21 2 -12 -5 -39
-15 -60z"/>
<path d="M3690 2905 c0 -16 16 -20 24 -6 3 5 -1 11 -9 15 -9 3 -15 0 -15 -9z"/>
<path d="M3616 2762 c-3 -6 -1 -14 5 -17 14 -9 20 -2 10 14 -6 8 -11 9 -15 3z"/>
<path d="M1356 2205 c4 -8 10 -15 15 -15 5 0 9 7 9 15 0 8 -7 15 -15 15 -9 0
-12 -6 -9 -15z"/>
<path d="M1290 2055 c0 -8 4 -15 10 -15 5 0 7 7 4 15 -4 8 -8 15 -10 15 -2 0
-4 -7 -4 -15z"/>
<path d="M1590 1970 c-6 -12 -8 -30 -5 -40 7 -23 51 -38 66 -23 7 7 2 9 -14 6
-19 -4 -28 1 -37 17 -15 28 4 53 37 47 13 -2 23 0 23 4 0 19 -59 9 -70 -11z"/>
<path d="M1812 1948 l-2 -48 33 1 c29 2 29 2 5 6 -24 4 -27 10 -31 46 l-4 42
-1 -47z"/>
<path d="M2020 1976 c-15 -19 -9 -56 11 -69 9 -5 28 -7 42 -3 31 7 46 48 27
71 -16 19 -64 19 -80 1z m69 -10 c9 -11 10 -20 1 -36 -13 -25 -47 -24 -63 2
-22 34 36 66 62 34z"/>
<path d="M2252 1983 c12 -3 18 -17 21 -46 l4 -42 1 42 c2 30 7 43 20 46 9 3
-1 5 -23 5 -22 0 -32 -2 -23 -5z"/>
<path d="M2453 1945 c0 -27 2 -40 4 -27 3 17 11 22 33 22 22 0 30 -5 33 -22 2
-13 4 0 4 27 0 28 -2 40 -4 28 -3 -18 -11 -23 -33 -23 -22 0 -30 5 -33 23 -2
12 -4 0 -4 -28z"/>
<path d="M2688 1983 c6 -2 12 -20 12 -38 0 -18 -6 -36 -12 -38 -7 -3 0 -6 17
-6 22 -1 26 2 17 11 -16 16 -15 65 1 71 6 3 -1 5 -18 5 -16 0 -24 -2 -17 -5z"/>
<path d="M2881 1943 l2 -48 6 40 6 40 30 -37 c17 -21 33 -38 38 -38 4 0 6 21
6 48 l-2 47 -6 -39 -6 -40 -28 37 c-15 20 -32 37 -38 37 -5 0 -8 -21 -8 -47z"/>
<path d="M3122 1978 c-7 -7 -12 -22 -12 -35 0 -40 70 -60 89 -24 12 21 5 31
-21 31 -23 0 -24 -17 0 -23 16 -4 16 -4 0 -12 -38 -16 -72 21 -47 51 9 11 22
14 41 10 18 -3 27 -2 23 4 -9 14 -59 12 -73 -2z"/>
<path d="M3352 1968 c2 -13 12 -24 26 -28 33 -7 23 -25 -13 -23 -24 1 -27 0
-12 -8 10 -6 28 -9 40 -7 31 4 30 40 -2 48 -35 8 -42 34 -7 28 14 -3 26 -1 26
3 0 5 -14 9 -31 9 -26 0 -30 -3 -27 -22z"/>
<path d="M1323 1955 c0 -8 4 -15 9 -15 4 0 8 7 8 15 0 8 -4 15 -8 15 -5 0 -9
-7 -9 -15z"/>
<path d="M1215 1950 c3 -5 8 -10 11 -10 2 0 4 5 4 10 0 6 -5 10 -11 10 -5 0
-7 -4 -4 -10z"/>
<path d="M1380 1860 c0 -13 5 -20 13 -17 6 2 12 10 12 17 0 7 -6 15 -12 18 -8
2 -13 -5 -13 -18z"/>
<path d="M1165 1810 c3 -5 8 -10 11 -10 2 0 4 5 4 10 0 6 -5 10 -11 10 -5 0
-7 -4 -4 -10z"/>
<path d="M1485 1800 c3 -5 11 -10 16 -10 6 0 7 5 4 10 -3 6 -11 10 -16 10 -6
0 -7 -4 -4 -10z"/>
<path d="M1595 1760 c4 -6 11 -8 16 -5 14 9 11 15 -7 15 -8 0 -12 -5 -9 -10z"/>
<path d="M1480 1736 c0 -2 8 -10 18 -17 15 -13 16 -12 3 4 -13 16 -21 21 -21
13z"/>
<path d="M1338 1713 c7 -3 16 -2 19 1 4 3 -2 6 -13 5 -11 0 -14 -3 -6 -6z"/>
<path d="M1557 1645 c61 -71 109 -118 180 -173 31 -24 48 -42 40 -45 -9 -4 -8
-8 3 -16 10 -7 17 -7 21 0 3 6 20 2 42 -11 l36 -21 11 22 c9 15 9 19 1 15 -6
-4 -28 3 -49 16 -20 12 -42 23 -49 24 -21 3 -93 62 -192 158 -81 78 -87 82
-44 31z"/>
<path d="M1656 1625 c4 -8 10 -12 15 -9 14 8 10 24 -6 24 -9 0 -12 -6 -9 -15z"/>
<path d="M1760 1535 c0 -8 7 -15 15 -15 8 0 15 7 15 15 0 8 -7 15 -15 15 -8 0
-15 -7 -15 -15z"/>
<path d="M1690 1349 c0 -5 5 -7 10 -4 6 3 10 8 10 11 0 2 -4 4 -10 4 -5 0 -10
-5 -10 -11z"/>
</g>
</svg>
